STARTFONT 2.1
COMMENT
COMMENT Converted from OpenType font "Q:\font stuff\winfont\Legacy Serif Md ITC TT Medium.ttf" by "otf2bdf 3.0".
COMMENT
FONT -FreeType-Legacy Serif Md ITC TT-Medium-R-Normal--28-280-72-72-P-134-ISO10646-1
SIZE 28 72 72
FONTBOUNDINGBOX 32 33 -4 -8
STARTPROPERTIES 19
FOUNDRY "FreeType"
FAMILY_NAME "Legacy Serif Md ITC TT"
WEIGHT_NAME "Medium"
SLANT "R"
SETWIDTH_NAME "Normal"
ADD_STYLE_NAME ""
PIXEL_SIZE 28
POINT_SIZE 280
RESOLUTION_X 72
RESOLUTION_Y 72
SPACING "P"
AVERAGE_WIDTH 134
CHARSET_REGISTRY "ISO10646"
CHARSET_ENCODING "1"
FONT_ASCENT 24
FONT_DESCENT 7
COPYRIGHT " (c) Copyright 1997 International Typeface Corporation. All rights reserved."
_OTF_FONTFILE "Q:\font stuff\winfont\Legacy Serif Md ITC TT Medium.ttf"
_OTF_PSNAME "LegacySerifMdITCTTMedium"
ENDPROPERTIES
CHARS 252
STARTCHAR 0020
ENCODING 32
SWIDTH 250 0
DWIDTH 7 0
BBX 0 0 0 0
BITMAP
ENDCHAR
STARTCHAR 0021
ENCODING 33
SWIDTH 357 0
DWIDTH 10 0
BBX 4 18 3 0
BITMAP
70
70
70
70
70
60
60
60
60
60
40
40
40
00
40
E0
E0
40
ENDCHAR
STARTCHAR 0022
ENCODING 34
SWIDTH 357 0
DWIDTH 10 0
BBX 6 8 2 10
BITMAP
FC
FC
FC
D8
D8
C8
48
48
ENDCHAR
STARTCHAR 0023
ENCODING 35
SWIDTH 500 0
DWIDTH 14 0
BBX 14 19 0 -1
BITMAP
0210
0310
0610
0620
0620
7FFC
0CE0
0CC0
0CC0
0CC0
09C0
09C0
FFF8
1080
2180
2100
2300
6300
0100
ENDCHAR
STARTCHAR 0024
ENCODING 36
SWIDTH 535 0
DWIDTH 15 0
BBX 12 23 1 -3
BITMAP
0200
0200
0200
1FE0
7260
6220
E220
F200
FA00
7E00
3F80
0FE0
03F0
02F0
0270
8270
C270
6260
7FE0
4F00
0200
0200
0200
ENDCHAR
STARTCHAR 0025
ENCODING 37
SWIDTH 678 0
DWIDTH 19 0
BBX 18 18 1 0
BITMAP
3C0400
670800
E70800
E39000
E39000
E3A000
E32000
674000
3CC000
009E00
013380
017380
0271C0
0271C0
0471C0
047180
083300
081E00
ENDCHAR
STARTCHAR 0026
ENCODING 38
SWIDTH 750 0
DWIDTH 21 0
BBX 20 18 2 0
BITMAP
07C000
18E000
38F000
387000
387000
38E000
1E87E0
0F8380
33C300
60E200
E07600
E03C00
E03800
E01800
F03C10
F87E20
7FCFE0
1F07C0
ENDCHAR
STARTCHAR 0027
ENCODING 39
SWIDTH 357 0
DWIDTH 10 0
BBX 3 8 4 10
BITMAP
E0
E0
E0
C0
C0
C0
C0
40
ENDCHAR
STARTCHAR 0028
ENCODING 40
SWIDTH 321 0
DWIDTH 9 0
BBX 7 27 2 -7
BITMAP
06
0C
1C
18
30
70
70
60
E0
E0
E0
E0
E0
E0
E0
E0
E0
E0
E0
60
70
30
30
18
1C
0C
06
ENDCHAR
STARTCHAR 0029
ENCODING 41
SWIDTH 357 0
DWIDTH 10 0
BBX 7 27 1 -7
BITMAP
80
40
60
30
38
18
1C
1C
1C
0E
0E
0E
0E
0E
0E
0E
0E
0E
1C
1C
1C
18
38
30
60
40
80
ENDCHAR
STARTCHAR 002A
ENCODING 42
SWIDTH 535 0
DWIDTH 15 0
BBX 11 10 2 8
BITMAP
3100
3380
1B00
0A00
F5E0
EFE0
0A00
1B00
3380
3100
ENDCHAR
STARTCHAR 002B
ENCODING 43
SWIDTH 535 0
DWIDTH 15 0
BBX 12 12 1 3
BITMAP
0600
0600
0600
0600
0600
0600
FFF0
0600
0600
0600
0600
0600
ENDCHAR
STARTCHAR 002C
ENCODING 44
SWIDTH 250 0
DWIDTH 7 0
BBX 5 8 1 -5
BITMAP
60
70
70
38
30
30
60
C0
ENDCHAR
STARTCHAR 002D
ENCODING 45
SWIDTH 285 0
DWIDTH 8 0
BBX 6 2 1 5
BITMAP
FC
FC
ENDCHAR
STARTCHAR 002E
ENCODING 46
SWIDTH 250 0
DWIDTH 7 0
BBX 3 3 2 0
BITMAP
C0
E0
C0
ENDCHAR
STARTCHAR 002F
ENCODING 47
SWIDTH 392 0
DWIDTH 11 0
BBX 11 27 -1 -7
BITMAP
0060
0060
0060
00C0
00C0
0080
0180
0180
0100
0300
0300
0600
0600
0600
0C00
0C00
0C00
1800
1800
1800
3000
3000
3000
6000
6000
6000
C000
ENDCHAR
STARTCHAR 0030
ENCODING 48
SWIDTH 535 0
DWIDTH 15 0
BBX 12 18 1 0
BITMAP
0F80
18C0
30E0
7060
7070
6070
E070
E070
E070
E070
E070
E070
6070
7070
7060
30E0
38C0
0F00
ENDCHAR
STARTCHAR 0031
ENCODING 49
SWIDTH 535 0
DWIDTH 15 0
BBX 11 18 2 0
BITMAP
0200
0E00
3E00
4E00
0E00
0E00
0E00
0E00
0E00
0E00
0E00
0E00
0E00
0E00
0E00
0E00
1F00
FFE0
ENDCHAR
STARTCHAR 0032
ENCODING 50
SWIDTH 535 0
DWIDTH 15 0
BBX 12 18 1 0
BITMAP
0F80
31C0
20E0
40E0
40E0
00E0
01E0
01C0
0180
0380
0700
0600
0C00
1810
3010
7FF0
7FE0
FFE0
ENDCHAR
STARTCHAR 0033
ENCODING 51
SWIDTH 535 0
DWIDTH 15 0
BBX 12 18 1 0
BITMAP
0F80
33C0
21C0
41C0
01C0
0180
0300
0700
0FE0
10F0
0070
0070
0070
0070
0060
E0E0
F1C0
3F00
ENDCHAR
STARTCHAR 0034
ENCODING 52
SWIDTH 535 0
DWIDTH 15 0
BBX 13 18 1 0
BITMAP
0060
00E0
01E0
01E0
02E0
04E0
08E0
18E0
30E0
20E0
40E0
C0E0
FFF8
00E0
00E0
00E0
00E0
00E0
ENDCHAR
STARTCHAR 0035
ENCODING 53
SWIDTH 535 0
DWIDTH 15 0
BBX 12 18 1 0
BITMAP
0FF0
0FE0
1FE0
1000
1000
1000
3C00
3F00
0FC0
03C0
01E0
00E0
00E0
00E0
40E0
E0C0
7180
3E00
ENDCHAR
STARTCHAR 0036
ENCODING 54
SWIDTH 535 0
DWIDTH 15 0
BBX 12 18 1 0
BITMAP
00F0
0300
0E00
1C00
3800
3800
7000
73C0
7CE0
E870
E070
E070
E070
7070
7070
7060
38E0
0F80
ENDCHAR
STARTCHAR 0037
ENCODING 55
SWIDTH 535 0
DWIDTH 15 0
BBX 13 18 1 0
BITMAP
7FF8
7FF8
7FF0
4030
C020
0040
00C0
0080
0180
0100
0300
0600
0600
0C00
1800
1800
3000
3000
ENDCHAR
STARTCHAR 0038
ENCODING 56
SWIDTH 535 0
DWIDTH 15 0
BBX 12 18 1 0
BITMAP
0F80
39C0
30E0
70E0
70E0
78E0
38C0
3F80
1F80
1FC0
31E0
70F0
E070
E070
E070
7060
78E0
1F80
ENDCHAR
STARTCHAR 0039
ENCODING 57
SWIDTH 535 0
DWIDTH 15 0
BBX 12 18 1 0
BITMAP
0F80
39C0
70E0
6070
E070
E070
E070
F070
7070
7970
1E70
0060
00E0
00C0
0180
0300
0E00
F800
ENDCHAR
STARTCHAR 003A
ENCODING 58
SWIDTH 250 0
DWIDTH 7 0
BBX 2 12 2 0
BITMAP
C0
C0
C0
C0
00
00
00
00
C0
C0
C0
C0
ENDCHAR
STARTCHAR 003B
ENCODING 59
SWIDTH 250 0
DWIDTH 7 0
BBX 5 17 1 -5
BITMAP
30
30
30
30
00
00
00
00
00
30
30
30
38
30
30
60
C0
ENDCHAR
STARTCHAR 003C
ENCODING 60
SWIDTH 535 0
DWIDTH 15 0
BBX 9 13 3 2
BITMAP
0080
0180
0200
0C00
1000
6000
F000
F800
7E00
1F00
0F80
0380
0180
ENDCHAR
STARTCHAR 003D
ENCODING 61
SWIDTH 535 0
DWIDTH 15 0
BBX 12 5 1 6
BITMAP
FFF0
0000
0000
0000
FFF0
ENDCHAR
STARTCHAR 003E
ENCODING 62
SWIDTH 535 0
DWIDTH 15 0
BBX 10 14 2 2
BITMAP
8000
C000
F000
F800
7C00
1F00
0F80
07C0
0180
0600
0C00
3000
6000
8000
ENDCHAR
STARTCHAR 003F
ENCODING 63
SWIDTH 392 0
DWIDTH 11 0
BBX 9 18 2 0
BITMAP
F000
FC00
C600
0200
0100
0300
0780
0F00
3F00
7C00
7000
4000
4000
0000
6000
7000
7000
6000
ENDCHAR
STARTCHAR 0040
ENCODING 64
SWIDTH 750 0
DWIDTH 21 0
BBX 19 18 1 0
BITMAP
01FC00
070700
0C0380
1801C0
380CE0
707CE0
70DCE0
E19CE0
E398E0
E318E0
E738C0
E739C0
F75980
739E00
780000
380000
0E0000
03FC00
ENDCHAR
STARTCHAR 0041
ENCODING 65
SWIDTH 678 0
DWIDTH 19 0
BBX 19 18 0 0
BITMAP
006000
00E000
00E000
01F000
017000
033800
023800
023800
061C00
041C00
0C1E00
0FFE00
180E00
180700
300700
300780
700780
FC0FE0
ENDCHAR
STARTCHAR 0042
ENCODING 66
SWIDTH 642 0
DWIDTH 18 0
BBX 15 18 1 0
BITMAP
FFE0
3878
383C
381C
381C
381C
3838
3860
3FF0
383C
381C
380E
380E
380E
380E
381C
7838
FFE0
ENDCHAR
STARTCHAR 0043
ENCODING 67
SWIDTH 678 0
DWIDTH 19 0
BBX 17 18 1 0
BITMAP
01FF80
060780
1C0180
380100
700100
700000
700000
E00000
E00000
E00000
E00000
700000
700000
700000
380080
1C0100
0F0700
01FE00
ENDCHAR
STARTCHAR 0044
ENCODING 68
SWIDTH 785 0
DWIDTH 22 0
BBX 19 18 1 0
BITMAP
FFF800
3C1E00
380780
380380
3801C0
3801C0
3800E0
3800E0
3800E0
3800E0
3800E0
3800E0
3801C0
3801C0
380380
380700
3C1E00
FFF000
ENDCHAR
STARTCHAR 0045
ENCODING 69
SWIDTH 607 0
DWIDTH 17 0
BBX 15 18 1 0
BITMAP
FFFC
380C
3804
3804
3800
3800
3808
3818
3FF8
3838
3818
3808
3800
3802
3806
3804
3C1C
FFFC
ENDCHAR
STARTCHAR 0046
ENCODING 70
SWIDTH 571 0
DWIDTH 16 0
BBX 14 18 1 0
BITMAP
FFFC
781C
380C
3804
3804
3800
3810
3810
3FF0
3FF0
3810
3810
3800
3800
3800
3C00
7C00
FF00
ENDCHAR
STARTCHAR 0047
ENCODING 71
SWIDTH 750 0
DWIDTH 21 0
BBX 19 18 1 0
BITMAP
00FF80
070380
1C0180
380080
300080
700000
700000
600000
E00000
E01FE0
E003C0
700380
700380
700380
380380
1C0380
0F03C0
01FF00
ENDCHAR
STARTCHAR 0048
ENCODING 72
SWIDTH 785 0
DWIDTH 22 0
BBX 21 18 1 0
BITMAP
7F87F8
1C01C0
1C01C0
1C01C0
1C01C0
1C01C0
1C01C0
1C01C0
1FFFC0
1C01C0
1C01C0
1C01C0
1C01C0
1C01C0
1C01C0
1C01C0
3C03C0
FF87F8
ENDCHAR
STARTCHAR 0049
ENCODING 73
SWIDTH 357 0
DWIDTH 10 0
BBX 9 18 1 0
BITMAP
FF80
3C00
3C00
1C00
1800
1800
1800
1800
1800
1800
3800
3800
3800
3800
3800
3C00
3C00
FF80
ENDCHAR
STARTCHAR 004A
ENCODING 74
SWIDTH 357 0
DWIDTH 10 0
BBX 12 24 -2 -6
BITMAP
1FF0
03C0
0380
0380
0380
0380
0380
0380
0380
0380
0380
0380
0380
0380
0380
0380
0380
0380
0380
0300
0300
4200
E400
F800
ENDCHAR
STARTCHAR 004B
ENCODING 75
SWIDTH 678 0
DWIDTH 19 0
BBX 18 18 1 0
BITMAP
FE1FC0
3C0F00
380E00
381C00
383800
386000
38C000
398000
3BC000
3DE000
39E000
38F000
387800
383C00
381E00
380F00
380780
FE3FC0
ENDCHAR
STARTCHAR 004C
ENCODING 76
SWIDTH 571 0
DWIDTH 16 0
BBX 15 18 1 0
BITMAP
FF00
3C00
1C00
1C00
1C00
1C00
1C00
1C00
1C00
1C00
1C00
1C00
1C00
1C02
1C04
1C04
3C0C
FFFC
ENDCHAR
STARTCHAR 004D
ENCODING 77
SWIDTH 928 0
DWIDTH 26 0
BBX 25 18 0 0
BITMAP
7E000F80
1E001E00
1E001C00
1F003C00
17003C00
17807C00
13805C00
1BC0DC00
19C09E00
19E19E00
18E11E00
18F21E00
18721E00
187C1E00
183C1E00
18381E00
3C381E00
FF907F80
ENDCHAR
STARTCHAR 004E
ENCODING 78
SWIDTH 785 0
DWIDTH 22 0
BBX 23 18 -1 0
BITMAP
3E03FE
0F0078
0F8030
0F8030
0DC030
0CE030
0CF030
0C7820
0C3C20
0C1E20
0C0F20
0C07A0
0C03E0
0C01E0
0C00E0
0E0060
1E0030
FFC030
ENDCHAR
STARTCHAR 004F
ENCODING 79
SWIDTH 785 0
DWIDTH 22 0
BBX 20 18 1 0
BITMAP
01FC00
060700
1C03C0
3801E0
3000E0
700070
700070
E00070
E00070
E00070
F00070
700070
700070
780060
3800C0
1C0180
0F0300
01FC00
ENDCHAR
STARTCHAR 0050
ENCODING 80
SWIDTH 571 0
DWIDTH 16 0
BBX 15 18 1 0
BITMAP
FFE0
3C38
1C1C
1C1C
1C0E
1C0E
1C0E
1C1C
1C1C
1C78
1FE0
1C00
1C00
1C00
1C00
3C00
3C00
FF00
ENDCHAR
STARTCHAR 0051
ENCODING 81
SWIDTH 785 0
DWIDTH 22 0
BBX 22 24 1 -6
BITMAP
01FC00
060F00
1C0380
3801C0
3000E0
700070
700070
600070
E00070
E00070
F00070
700070
700070
780060
3800E0
3C01C0
1F0380
07FF00
00F800
003C00
001E00
000F00
0003C4
0000F8
ENDCHAR
STARTCHAR 0052
ENCODING 82
SWIDTH 678 0
DWIDTH 19 0
BBX 19 18 1 0
BITMAP
FFF000
383C00
381C00
380E00
380E00
380E00
380E00
381C00
383800
3FE000
38F000
38F000
387800
383800
383C00
381E00
380F00
FF03E0
ENDCHAR
STARTCHAR 0053
ENCODING 83
SWIDTH 571 0
DWIDTH 16 0
BBX 13 18 1 0
BITMAP
0FF0
1870
3030
7010
7010
7800
7C00
3F00
1FC0
07F0
01F0
0078
8038
C038
C038
E030
F070
7FC0
ENDCHAR
STARTCHAR 0054
ENCODING 84
SWIDTH 642 0
DWIDTH 18 0
BBX 18 18 0 0
BITMAP
7FFFC0
7FFFC0
C1C0C0
81C0C0
81C080
01C000
01C000
01C000
01C000
01C000
01C000
01C000
01C000
01C000
01C000
01C000
03E000
1FFC00
ENDCHAR
STARTCHAR 0055
ENCODING 85
SWIDTH 714 0
DWIDTH 20 0
BBX 20 18 0 0
BITMAP
FF07F0
3C01E0
1C00C0
1C00C0
1C00C0
1C00C0
1800C0
1800C0
1800C0
1800C0
1800C0
3C00C0
3C00C0
1C00C0
1C0080
1E0180
0F0600
03F800
ENDCHAR
STARTCHAR 0056
ENCODING 86
SWIDTH 642 0
DWIDTH 18 0
BBX 18 18 0 0
BITMAP
FE0FC0
780180
380180
3C0300
1C0300
1C0600
0E0600
0E0C00
0F0C00
071800
071800
039000
03B000
03A000
01E000
01C000
01C000
00C000
ENDCHAR
STARTCHAR 0057
ENCODING 87
SWIDTH 928 0
DWIDTH 26 0
BBX 27 18 0 0
BITMAP
FEFFF7E0
3878C1C0
3838C1C0
1C388180
1C1D8300
0C1D0300
0E1F0200
0E0E0600
060E0400
070F0C00
030F0800
038B9800
039B9000
0191B000
01F1E000
00E0E000
00E0E000
00C0C000
ENDCHAR
STARTCHAR 0058
ENCODING 88
SWIDTH 678 0
DWIDTH 19 0
BBX 18 18 0 0
BITMAP
7F8FC0
1E0380
0E0300
0F0600
070400
038800
03D800
01F000
00E000
00F000
01F800
033800
061C00
041E00
0C0E00
180700
380780
FE3FC0
ENDCHAR
STARTCHAR 0059
ENCODING 89
SWIDTH 607 0
DWIDTH 17 0
BBX 18 18 0 0
BITMAP
FE0FC0
780700
380600
3C0600
1E0C00
0E1800
0F1000
07B000
03A000
03C000
01C000
01C000
01C000
01C000
01C000
01C000
03C000
0FF800
ENDCHAR
STARTCHAR 005A
ENCODING 90
SWIDTH 642 0
DWIDTH 18 0
BBX 16 18 1 0
BITMAP
3FFF
7FFE
601C
403C
4078
0070
00E0
01E0
03C0
0380
0700
0F00
1E00
1C01
3C03
7803
F01E
FFFE
ENDCHAR
STARTCHAR 005B
ENCODING 91
SWIDTH 321 0
DWIDTH 9 0
BBX 6 26 3 -7
BITMAP
FC
E0
E0
E0
E0
E0
E0
E0
E0
E0
E0
E0
E0
E0
E0
E0
E0
E0
E0
E0
E0
E0
E0
E0
E0
FC
ENDCHAR
STARTCHAR 005C
ENCODING 92
SWIDTH 392 0
DWIDTH 11 0
BBX 11 27 1 -7
BITMAP
C000
C000
C000
6000
6000
6000
3000
3000
3000
1800
1800
1800
0C00
0C00
0600
0600
0600
0300
0300
0300
0180
0180
0180
00C0
00C0
00C0
0060
ENDCHAR
STARTCHAR 005D
ENCODING 93
SWIDTH 357 0
DWIDTH 10 0
BBX 6 26 1 -6
BITMAP
FC
1C
1C
1C
1C
1C
1C
1C
1C
1C
1C
1C
1C
1C
1C
1C
1C
1C
1C
1C
1C
1C
1C
1C
1C
FC
ENDCHAR
STARTCHAR 005E
ENCODING 94
SWIDTH 464 0
DWIDTH 13 0
BBX 14 11 0 8
BITMAP
0200
0300
0780
0F80
0E40
1E60
3C20
3810
7810
F008
E004
ENDCHAR
STARTCHAR 005F
ENCODING 95
SWIDTH 464 0
DWIDTH 13 0
BBX 13 2 0 -5
BITMAP
FFF8
FFF8
ENDCHAR
STARTCHAR 0060
ENCODING 96
SWIDTH 535 0
DWIDTH 15 0
BBX 6 4 4 14
BITMAP
E0
70
18
0C
ENDCHAR
STARTCHAR 0061
ENCODING 97
SWIDTH 464 0
DWIDTH 13 0
BBX 13 12 1 0
BITMAP
0F80
31C0
61C0
C1C0
01C0
03C0
3FC0
F1C0
E1C0
E1C0
FFF8
7DE0
ENDCHAR
STARTCHAR 0062
ENCODING 98
SWIDTH 607 0
DWIDTH 17 0
BBX 14 20 1 0
BITMAP
1800
F800
3800
3800
3800
3800
3800
3800
39E0
3E78
3838
381C
381C
381C
381C
381C
3818
3830
3C60
3F80
ENDCHAR
STARTCHAR 0063
ENCODING 99
SWIDTH 428 0
DWIDTH 12 0
BBX 10 12 1 0
BITMAP
0FC0
11C0
30C0
6000
E000
E000
E000
E000
F000
7000
3840
1F80
ENDCHAR
STARTCHAR 0064
ENCODING 100
SWIDTH 571 0
DWIDTH 16 0
BBX 13 20 1 0
BITMAP
0018
0070
00F0
0070
0070
0070
0070
0070
0FF0
38F0
3070
6070
E070
E070
E070
E070
F070
7070
7870
1FF8
ENDCHAR
STARTCHAR 0065
ENCODING 101
SWIDTH 428 0
DWIDTH 12 0
BBX 11 12 1 0
BITMAP
0F00
31C0
60C0
60E0
E3E0
FF00
E000
E000
E000
7000
7840
1F80
ENDCHAR
STARTCHAR 0066
ENCODING 102
SWIDTH 357 0
DWIDTH 10 0
BBX 12 20 1 0
BITMAP
03E0
0C70
1830
3800
3800
3800
3800
3800
FF80
3800
3800
3800
3800
3800
3800
3800
3800
3800
7800
FF00
ENDCHAR
STARTCHAR 0067
ENCODING 103
SWIDTH 535 0
DWIDTH 15 0
BBX 13 20 1 -8
BITMAP
0FF8
39E0
31E0
70E0
70E0
70E0
78C0
3D80
1E00
0800
3800
3FE0
3FF0
1878
7038
E038
E030
E060
F0C0
3F00
ENDCHAR
STARTCHAR 0068
ENCODING 104
SWIDTH 607 0
DWIDTH 17 0
BBX 15 20 1 0
BITMAP
3800
F800
7800
3800
3800
3800
3800
3800
39E0
3E70
3838
3838
3838
3838
3838
3838
3838
3838
7878
FCFE
ENDCHAR
STARTCHAR 0069
ENCODING 105
SWIDTH 285 0
DWIDTH 8 0
BBX 7 19 1 0
BITMAP
30
38
30
00
00
00
00
18
F8
78
38
38
38
38
38
38
38
78
FE
ENDCHAR
STARTCHAR 006A
ENCODING 106
SWIDTH 321 0
DWIDTH 9 0
BBX 7 27 0 -8
BITMAP
0E
0E
0E
00
00
00
00
06
1E
3E
0E
0E
0E
0E
0E
0E
0E
0E
0E
0E
0E
0E
0E
0C
1C
F8
E0
ENDCHAR
STARTCHAR 006B
ENCODING 107
SWIDTH 571 0
DWIDTH 16 0
BBX 15 20 1 0
BITMAP
3800
F800
3800
3800
3800
3800
3800
3800
38FC
3870
38C0
3980
3A00
3F00
3B80
39C0
38E0
38F0
7878
FE7E
ENDCHAR
STARTCHAR 006C
ENCODING 108
SWIDTH 285 0
DWIDTH 8 0
BBX 7 20 1 0
BITMAP
38
F8
78
38
38
38
38
38
38
38
38
38
38
38
38
38
38
78
78
FE
ENDCHAR
STARTCHAR 006D
ENCODING 109
SWIDTH 857 0
DWIDTH 24 0
BBX 23 12 1 0
BITMAP
1BE1E0
7C7E70
F83838
383838
383838
383838
383838
383838
383838
383838
3C7878
FEFEFE
ENDCHAR
STARTCHAR 006E
ENCODING 110
SWIDTH 607 0
DWIDTH 17 0
BBX 15 12 1 0
BITMAP
18F0
FF70
7838
3838
3838
3838
3838
3838
3838
3838
3878
FEFE
ENDCHAR
STARTCHAR 006F
ENCODING 111
SWIDTH 571 0
DWIDTH 16 0
BBX 13 12 1 0
BITMAP
0FC0
38E0
7070
6078
E038
E038
E038
E038
7038
7030
3860
0F80
ENDCHAR
STARTCHAR 0070
ENCODING 112
SWIDTH 571 0
DWIDTH 16 0
BBX 14 20 1 -8
BITMAP
1BE0
7C70
F838
3838
383C
381C
381C
3818
3818
3830
3C60
3FC0
3800
3800
3800
3800
3800
3800
7800
FE00
ENDCHAR
STARTCHAR 0071
ENCODING 113
SWIDTH 571 0
DWIDTH 16 0
BBX 14 20 1 -8
BITMAP
07F8
18F0
3070
6070
E070
E070
E070
E070
F070
7070
7870
1FF0
0070
0070
0070
0070
0070
0070
0070
01EC
ENDCHAR
STARTCHAR 0072
ENCODING 114
SWIDTH 392 0
DWIDTH 11 0
BBX 10 12 1 0
BITMAP
18C0
3BC0
7CC0
3800
3800
3800
3800
3800
3800
3800
3800
FE00
ENDCHAR
STARTCHAR 0073
ENCODING 115
SWIDTH 392 0
DWIDTH 11 0
BBX 9 12 1 0
BITMAP
3F00
7300
E100
F000
F800
7E00
1F00
0780
8380
C380
C380
FE00
ENDCHAR
STARTCHAR 0074
ENCODING 116
SWIDTH 357 0
DWIDTH 10 0
BBX 9 14 1 0
BITMAP
1000
3000
FF80
7F80
7000
7000
7000
7000
7000
7000
7000
7000
7F80
3E00
ENDCHAR
STARTCHAR 0075
ENCODING 117
SWIDTH 607 0
DWIDTH 17 0
BBX 15 12 2 0
BITMAP
6070
F1F0
7070
7070
7070
7070
7070
7070
7070
7070
78FE
3F38
ENDCHAR
STARTCHAR 0076
ENCODING 118
SWIDTH 464 0
DWIDTH 13 0
BBX 13 12 0 0
BITMAP
FCF8
7030
7820
3820
3840
1C40
1C80
0C80
0F00
0F00
0600
0600
ENDCHAR
STARTCHAR 0077
ENCODING 119
SWIDTH 714 0
DWIDTH 20 0
BBX 20 12 0 0
BITMAP
FDF9F0
78F060
387060
387040
187880
1C7880
1CB900
0E9D00
0F1E00
071E00
070C00
060C00
ENDCHAR
STARTCHAR 0078
ENCODING 120
SWIDTH 464 0
DWIDTH 13 0
BBX 13 12 0 0
BITMAP
7EF8
3C30
1C60
1EC0
0E80
0700
0780
0F80
19C0
30E0
70E0
F9F8
ENDCHAR
STARTCHAR 0079
ENCODING 121
SWIDTH 428 0
DWIDTH 12 0
BBX 13 20 0 -8
BITMAP
FCF8
7030
7020
3860
3840
1840
1C80
1C80
0D00
0F00
0E00
0600
0400
0400
0800
0800
1000
3000
6000
E000
ENDCHAR
STARTCHAR 007A
ENCODING 122
SWIDTH 428 0
DWIDTH 12 0
BBX 12 12 0 0
BITMAP
3FF0
38E0
61C0
41C0
0380
0700
0E00
0E00
1C10
3830
7860
FFE0
ENDCHAR
STARTCHAR 007B
ENCODING 123
SWIDTH 321 0
DWIDTH 9 0
BBX 9 27 0 -7
BITMAP
0780
0E00
0C00
1C00
1C00
1C00
1C00
1C00
1C00
1C00
1C00
1C00
3800
E000
3800
1C00
1C00
1C00
1C00
1C00
1C00
1C00
1C00
1C00
0C00
0E00
0780
ENDCHAR
STARTCHAR 007C
ENCODING 124
SWIDTH 464 0
DWIDTH 13 0
BBX 3 22 6 -4
BITMAP
E0
E0
E0
E0
E0
E0
E0
E0
E0
E0
E0
E0
E0
E0
E0
E0
E0
E0
E0
E0
E0
E0
ENDCHAR
STARTCHAR 007D
ENCODING 125
SWIDTH 321 0
DWIDTH 9 0
BBX 9 27 0 -7
BITMAP
F000
1C00
1C00
1C00
1C00
1C00
1C00
1C00
1C00
1C00
1C00
0E00
0E00
0380
0E00
0E00
1C00
1C00
1C00
1C00
1C00
1C00
1C00
1C00
1C00
1C00
F000
ENDCHAR
STARTCHAR 007E
ENCODING 126
SWIDTH 642 0
DWIDTH 18 0
BBX 10 4 4 16
BITMAP
0040
7040
8C80
0700
ENDCHAR
STARTCHAR 00A0
ENCODING 160
SWIDTH 250 0
DWIDTH 7 0
BBX 0 0 0 0
BITMAP
ENDCHAR
STARTCHAR 00A1
ENCODING 161
SWIDTH 357 0
DWIDTH 10 0
BBX 4 19 3 -7
BITMAP
20
70
70
20
00
40
40
40
40
40
40
C0
C0
E0
E0
E0
E0
E0
E0
ENDCHAR
STARTCHAR 00A2
ENCODING 162
SWIDTH 535 0
DWIDTH 15 0
BBX 10 18 2 0
BITMAP
0400
0400
0400
0F80
3FC0
34C0
7400
6400
E400
E400
F400
7400
7400
3FC0
1F00
0400
0400
0600
ENDCHAR
STARTCHAR 00A3
ENCODING 163
SWIDTH 535 0
DWIDTH 15 0
BBX 13 18 1 0
BITMAP
03C0
0C70
1870
1830
3800
3800
3C00
3C00
3C00
FF80
1C00
1C00
0C00
0C00
0838
3C18
7F98
63E0
ENDCHAR
STARTCHAR 00A4
ENCODING 164
SWIDTH 535 0
DWIDTH 15 0
BBX 11 11 2 3
BITMAP
8E60
F380
7380
7180
71C0
71C0
71C0
7380
7380
DE40
8020
ENDCHAR
STARTCHAR 00A5
ENCODING 165
SWIDTH 535 0
DWIDTH 15 0
BBX 15 18 0 0
BITMAP
FC7E
781C
3818
3810
1C30
1C20
0E60
3E78
0780
0780
3FF8
0380
0300
0300
0300
0380
0780
0FE0
ENDCHAR
STARTCHAR 00A6
ENCODING 166
SWIDTH 464 0
DWIDTH 13 0
BBX 3 22 6 -4
BITMAP
E0
E0
E0
E0
E0
E0
E0
E0
E0
00
00
00
00
E0
E0
E0
E0
E0
E0
E0
E0
E0
ENDCHAR
STARTCHAR 00A7
ENCODING 167
SWIDTH 535 0
DWIDTH 15 0
BBX 11 25 2 -7
BITMAP
0780
1FC0
38C0
7000
7000
7000
7800
7E00
3F00
7FC0
E3C0
E1E0
E0E0
F060
7C40
7E80
1F00
0F80
03C0
01C0
01C0
0180
4380
FF00
7C00
ENDCHAR
STARTCHAR 00A8
ENCODING 168
SWIDTH 500 0
DWIDTH 14 0
BBX 8 3 3 14
BITMAP
E7
E7
E7
ENDCHAR
STARTCHAR 00A9
ENCODING 169
SWIDTH 750 0
DWIDTH 21 0
BBX 19 18 1 0
BITMAP
01F800
0E0600
180100
300080
61FC40
438C40
470420
8E0020
8E0020
8E0020
8E0020
470420
438C40
61F840
300080
180100
0E0600
01F800
ENDCHAR
STARTCHAR 00AA
ENCODING 170
SWIDTH 321 0
DWIDTH 9 0
BBX 8 7 1 7
BITMAP
7C
EC
0C
3E
EE
EF
FE
ENDCHAR
STARTCHAR 00AB
ENCODING 171
SWIDTH 535 0
DWIDTH 15 0
BBX 12 10 1 1
BITMAP
0610
0C30
1860
30C0
F3C0
7180
30C0
1860
0C30
0610
ENDCHAR
STARTCHAR 00AC
ENCODING 172
SWIDTH 535 0
DWIDTH 15 0
BBX 12 7 1 0
BITMAP
FFF0
0070
0070
0070
0070
0070
0070
ENDCHAR
STARTCHAR 00AD
ENCODING 173
SWIDTH 285 0
DWIDTH 8 0
BBX 6 2 1 5
BITMAP
FC
FC
ENDCHAR
STARTCHAR 00AE
ENCODING 174
SWIDTH 750 0
DWIDTH 21 0
BBX 19 18 1 0
BITMAP
01F800
0E0600
180100
300080
6FF040
43B840
43B820
83B820
83B820
83E020
839020
439020
438840
6F8640
300080
180100
0E0600
01F800
ENDCHAR
STARTCHAR 00AF
ENCODING 175
SWIDTH 500 0
DWIDTH 14 0
BBX 8 1 3 15
BITMAP
FF
ENDCHAR
STARTCHAR 00B0
ENCODING 176
SWIDTH 535 0
DWIDTH 15 0
BBX 8 7 3 11
BITMAP
3C
63
63
C3
63
63
3E
ENDCHAR
STARTCHAR 00B1
ENCODING 177
SWIDTH 535 0
DWIDTH 15 0
BBX 12 15 1 0
BITMAP
0600
0600
0600
0600
0600
FFF0
0600
0600
0600
0600
0600
0000
0000
0030
FFF0
ENDCHAR
STARTCHAR 00B2
ENCODING 178
SWIDTH 357 0
DWIDTH 10 0
BBX 8 11 1 7
BITMAP
1C
6E
47
07
0E
0E
1C
38
71
61
FE
ENDCHAR
STARTCHAR 00B3
ENCODING 179
SWIDTH 357 0
DWIDTH 10 0
BBX 8 11 1 7
BITMAP
3C
4E
0E
0C
1E
3F
0F
07
07
CE
78
ENDCHAR
STARTCHAR 00B4
ENCODING 180
SWIDTH 500 0
DWIDTH 14 0
BBX 5 4 6 14
BITMAP
38
70
C0
80
ENDCHAR
STARTCHAR 00B5
ENCODING 181
SWIDTH 607 0
DWIDTH 17 0
BBX 14 20 2 -8
BITMAP
61F0
F070
7070
7070
7070
7070
7070
7070
7070
7070
78FC
7F70
C000
C000
C000
E000
E000
E000
E000
C000
ENDCHAR
STARTCHAR 00B6
ENCODING 182
SWIDTH 714 0
DWIDTH 20 0
BBX 18 26 2 -7
BITMAP
000400
0004C0
0004C0
0FFF00
3F8400
7F8400
7F8400
FF8400
FF8400
FF8400
FF8400
FF8400
FF8400
FF8400
7F8400
3F8400
1F8400
03FC00
000400
000400
000400
000400
000C00
007800
007800
007000
ENDCHAR
STARTCHAR 00B7
ENCODING 183
SWIDTH 250 0
DWIDTH 7 0
BBX 2 4 2 4
BITMAP
C0
C0
C0
C0
ENDCHAR
STARTCHAR 00B8
ENCODING 184
SWIDTH 500 0
DWIDTH 14 0
BBX 5 5 5 -5
BITMAP
20
70
18
08
F0
ENDCHAR
STARTCHAR 00B9
ENCODING 185
SWIDTH 357 0
DWIDTH 10 0
BBX 6 11 2 7
BITMAP
10
70
30
30
30
30
30
30
30
30
FC
ENDCHAR
STARTCHAR 00BA
ENCODING 186
SWIDTH 357 0
DWIDTH 10 0
BBX 8 7 1 7
BITMAP
3C
EE
E7
E7
E7
EE
7C
ENDCHAR
STARTCHAR 00BB
ENCODING 187
SWIDTH 535 0
DWIDTH 15 0
BBX 12 10 1 1
BITMAP
C200
6100
3180
38E0
1C70
1C70
38C0
3180
6300
C200
ENDCHAR
STARTCHAR 00BC
ENCODING 188
SWIDTH 785 0
DWIDTH 22 0
BBX 19 18 2 0
BITMAP
100600
700C00
300C00
301800
301800
303000
302000
3020C0
3041C0
3043C0
FC87C0
0085C0
0109C0
0111C0
023FE0
0201C0
0401C0
0401C0
ENDCHAR
STARTCHAR 00BD
ENCODING 189
SWIDTH 785 0
DWIDTH 22 0
BBX 19 18 2 0
BITMAP
300E00
F00C00
300800
301800
301000
303000
302000
706780
7049C0
7080C0
FC81E0
0101C0
0101C0
020380
020700
040620
040C20
081FE0
ENDCHAR
STARTCHAR 00BE
ENCODING 190
SWIDTH 785 0
DWIDTH 22 0
BBX 21 18 1 0
BITMAP
0E0100
370200
270200
060400
0E0400
3F0800
070800
071060
0710E0
C620E0
7C21E0
0042E0
00C4E0
008CE0
018FF8
0100E0
0300E0
0600E0
ENDCHAR
STARTCHAR 00BF
ENCODING 191
SWIDTH 392 0
DWIDTH 11 0
BBX 9 18 1 -6
BITMAP
0200
0700
0700
0600
0000
0200
0200
0600
1E00
7E00
F800
E000
C000
C000
4000
2100
3F80
0F00
ENDCHAR
STARTCHAR 00C0
ENCODING 192
SWIDTH 678 0
DWIDTH 19 0
BBX 19 24 0 0
BITMAP
070000
078000
01C000
006000
000000
000000
006000
00E000
00E000
01F000
017000
033800
023800
023800
061C00
041C00
0C1E00
0FFE00
180E00
180700
300700
300780
700780
FC1FE0
ENDCHAR
STARTCHAR 00C1
ENCODING 193
SWIDTH 678 0
DWIDTH 19 0
BBX 19 24 0 0
BITMAP
000C00
001C00
003000
004000
000000
000000
006000
00E000
00E000
01F000
017000
033800
023800
023800
061C00
041C00
0C1E00
0FFE00
180E00
180700
300700
300780
700780
FC0FE0
ENDCHAR
STARTCHAR 00C2
ENCODING 194
SWIDTH 678 0
DWIDTH 19 0
BBX 19 25 0 0
BITMAP
004000
00E000
01F000
03B800
060C00
040000
000000
006000
00E000
00E000
01F000
017000
033800
023800
023800
061C00
041C00
0C1E00
0FFE00
180E00
180700
300700
300780
700780
FC0FE0
ENDCHAR
STARTCHAR 00C3
ENCODING 195
SWIDTH 678 0
DWIDTH 19 0
BBX 19 23 0 1
BITMAP
03C200
047C00
000000
000000
000000
006000
00E000
00E000
01F000
017000
033800
023800
023800
061C00
041C00
0C1E00
0FFE00
180E00
180700
300700
300780
700780
FC0FE0
ENDCHAR
STARTCHAR 00C4
ENCODING 196
SWIDTH 678 0
DWIDTH 19 0
BBX 19 23 0 0
BITMAP
071C00
071C00
071C00
000000
000000
006000
00E000
00E000
01F000
017000
033800
023800
023800
061C00
041C00
0C1E00
0FFE00
180E00
180700
300700
300780
700780
FC0FE0
ENDCHAR
STARTCHAR 00C5
ENCODING 197
SWIDTH 678 0
DWIDTH 19 0
BBX 19 24 0 0
BITMAP
01F000
031800
031800
031800
01F000
000000
006000
00E000
00E000
01F000
017000
033800
023800
023800
061C00
041C00
0C1E00
0FFE00
180E00
180700
300700
300780
700780
FC0FE0
ENDCHAR
STARTCHAR 00C6
ENCODING 198
SWIDTH 964 0
DWIDTH 27 0
BBX 26 18 0 0
BITMAP
001FFFC0
000F0180
000F0080
00170080
00270000
00270000
00470100
00C70100
0187FF00
01070700
03FF0100
06070100
04070000
0C070040
18070040
380700C0
700781C0
FC1FFF80
ENDCHAR
STARTCHAR 00C7
ENCODING 199
SWIDTH 678 0
DWIDTH 19 0
BBX 17 25 1 -7
BITMAP
01FF80
060780
1C0180
380100
300100
700000
700000
600000
E00000
E00000
E00000
700000
700000
700000
380080
3C0180
1F0700
07FF00
01E000
004000
006000
007000
003000
01B000
00E000
ENDCHAR
STARTCHAR 00C8
ENCODING 200
SWIDTH 607 0
DWIDTH 17 0
BBX 15 24 1 0
BITMAP
1C00
1E00
0700
0180
0000
0000
FFFC
380C
3804
3804
3800
3800
3808
3818
3FF8
3838
3818
3808
3800
3802
3806
3804
3C1C
FFFC
ENDCHAR
STARTCHAR 00C9
ENCODING 201
SWIDTH 607 0
DWIDTH 17 0
BBX 15 24 1 0
BITMAP
0030
0070
00C0
0300
0000
0000
FFFC
380C
3804
3804
3800
3800
3808
3818
3FF8
3838
3818
3808
3800
3802
3806
3804
3C1C
FFFC
ENDCHAR
STARTCHAR 00CA
ENCODING 202
SWIDTH 607 0
DWIDTH 17 0
BBX 15 25 1 0
BITMAP
0100
0380
07C0
0E60
1830
0000
0000
FFFC
380C
3804
3804
3800
3800
3808
3818
3FF8
3838
3818
3808
3800
3802
3806
3804
3C1C
FFFC
ENDCHAR
STARTCHAR 00CB
ENCODING 203
SWIDTH 607 0
DWIDTH 17 0
BBX 15 23 1 0
BITMAP
1C70
1C70
1C70
0000
0000
FFFC
380C
3804
3804
3800
3800
3808
3818
3FF8
3838
3818
3808
3800
3802
3806
3804
3C1C
FFFC
ENDCHAR
STARTCHAR 00CC
ENCODING 204
SWIDTH 357 0
DWIDTH 10 0
BBX 9 24 1 0
BITMAP
E000
F000
3800
0C00
0000
0000
FF80
3C00
3C00
1C00
1800
1800
1800
1800
1800
1800
3800
3800
3800
3800
3800
3C00
3C00
FF80
ENDCHAR
STARTCHAR 00CD
ENCODING 205
SWIDTH 357 0
DWIDTH 10 0
BBX 9 24 1 0
BITMAP
0700
0F00
1C00
3000
0000
0000
FF80
3C00
3C00
1C00
1800
1800
1800
1800
1800
1800
3800
3800
3800
3800
3800
3C00
3C00
FF80
ENDCHAR
STARTCHAR 00CE
ENCODING 206
SWIDTH 357 0
DWIDTH 10 0
BBX 9 25 0 0
BITMAP
0C00
1E00
1E00
3300
6180
0000
0000
FF80
1E00
1E00
1C00
1C00
1C00
1C00
1C00
1C00
1C00
1C00
1C00
1C00
1C00
1C00
1C00
1E00
FF80
ENDCHAR
STARTCHAR 00CF
ENCODING 207
SWIDTH 357 0
DWIDTH 10 0
BBX 9 23 1 0
BITMAP
C300
E380
C300
0000
0000
FF80
3C00
3C00
1C00
1800
1800
1800
1800
1800
1800
3800
3800
3800
3800
3800
3C00
3C00
FF80
ENDCHAR
STARTCHAR 00D0
ENCODING 208
SWIDTH 785 0
DWIDTH 22 0
BBX 19 18 1 0
BITMAP
FFF800
3C0E00
1C0380
1C0380
1C01C0
1C01C0
1C00E0
1C00E0
FFE0E0
1C00E0
1C00E0
1C00E0
1C01C0
1C01C0
1C0380
1C0700
3E0E00
FFF000
ENDCHAR
STARTCHAR 00D1
ENCODING 209
SWIDTH 785 0
DWIDTH 22 0
BBX 23 23 -1 1
BITMAP
007880
018F00
010000
000000
000000
3E03FE
0F0078
0F8030
0F8030
0DC030
0CE030
0CF030
0C7820
0C3C20
0C1E20
0C0F20
0C07A0
0C03E0
0C01E0
0C00E0
0E0060
1E0030
FFC030
ENDCHAR
STARTCHAR 00D2
ENCODING 210
SWIDTH 785 0
DWIDTH 22 0
BBX 20 24 1 0
BITMAP
038000
03C000
00E000
003000
000000
000000
01FC00
060700
1C03C0
3801E0
3000E0
700070
700070
E00070
E00070
E00070
F00070
700070
700070
780060
3800C0
1C0180
0F0300
01FC00
ENDCHAR
STARTCHAR 00D3
ENCODING 211
SWIDTH 785 0
DWIDTH 22 0
BBX 20 24 1 0
BITMAP
000C00
001C00
003000
004000
000000
000000
01FC00
060700
1C03C0
3801E0
3000E0
700070
700070
E00070
E00070
E00070
F00070
700070
700070
780060
3800C0
1C0180
0F0300
01FC00
ENDCHAR
STARTCHAR 00D4
ENCODING 212
SWIDTH 785 0
DWIDTH 22 0
BBX 20 25 1 0
BITMAP
006000
007000
00F800
019800
030400
000000
000000
01FC00
060700
1C03C0
3801E0
3000E0
700070
700070
E00070
E00070
E00070
F00070
700070
700070
780060
3800C0
1C0180
0F0300
01FC00
ENDCHAR
STARTCHAR 00D5
ENCODING 213
SWIDTH 785 0
DWIDTH 22 0
BBX 20 23 1 1
BITMAP
01C200
063C00
040000
000000
000000
01FC00
060700
1C03C0
3801E0
3000E0
700070
700070
E00070
E00070
E00070
F00070
700070
700070
780060
3800C0
1C0180
0F0300
01FC00
ENDCHAR
STARTCHAR 00D6
ENCODING 214
SWIDTH 785 0
DWIDTH 22 0
BBX 20 23 1 0
BITMAP
030C00
071C00
030C00
000000
000000
01FC00
060700
1C03C0
3801E0
3000E0
700070
700070
E00070
E00070
E00070
F00070
700070
700070
780060
3800C0
1C0180
0F0300
01FC00
ENDCHAR
STARTCHAR 00D7
ENCODING 215
SWIDTH 535 0
DWIDTH 15 0
BBX 10 10 2 4
BITMAP
4040
E0C0
3180
1B00
0E00
0E00
1B00
7180
E0C0
4040
ENDCHAR
STARTCHAR 00D8
ENCODING 216
SWIDTH 785 0
DWIDTH 22 0
BBX 20 20 1 -1
BITMAP
000060
01FCE0
060FC0
1C0380
3803C0
3005E0
700CF0
700870
E01070
E02070
E04070
F0C070
708070
710070
7A0060
3E00C0
1C0180
1F0300
33FC00
600000
ENDCHAR
STARTCHAR 00D9
ENCODING 217
SWIDTH 714 0
DWIDTH 20 0
BBX 20 24 0 0
BITMAP
038000
03C000
00E000
003000
000000
000000
FF07F0
3C01E0
1C00C0
1C00C0
1C00C0
1C00C0
1800C0
1800C0
1800C0
1800C0
1800C0
3C00C0
3C00C0
1C00C0
1C0080
1E0180
0F0600
03F800
ENDCHAR
STARTCHAR 00DA
ENCODING 218
SWIDTH 714 0
DWIDTH 20 0
BBX 20 24 0 0
BITMAP
000E00
001E00
003800
006000
000000
000000
FF07F0
3C01E0
1C00C0
1C00C0
1C00C0
1C00C0
1800C0
1800C0
1800C0
1800C0
1800C0
3C00C0
3C00C0
1C00C0
1C0080
1E0180
0F0600
03F800
ENDCHAR
STARTCHAR 00DB
ENCODING 219
SWIDTH 714 0
DWIDTH 20 0
BBX 20 25 0 0
BITMAP
002000
007000
00F800
019C00
030600
020000
000000
FF07F0
3C01E0
1C00C0
1C00C0
1C00C0
1C00C0
1800C0
1800C0
1800C0
1800C0
1800C0
3C00C0
3C00C0
1C00C0
1C0080
1E0180
0F0600
03F800
ENDCHAR
STARTCHAR 00DC
ENCODING 220
SWIDTH 714 0
DWIDTH 20 0
BBX 20 23 0 0
BITMAP
018600
038E00
018600
000000
000000
FF07F0
3C01E0
1C00C0
1C00C0
1C00C0
1C00C0
1800C0
1800C0
1800C0
1800C0
1800C0
3C00C0
3C00C0
1C00C0
1C0080
1E0180
0F0600
03F800
ENDCHAR
STARTCHAR 00DD
ENCODING 221
SWIDTH 607 0
DWIDTH 17 0
BBX 18 24 0 0
BITMAP
001C00
003800
006000
00C000
000000
000000
FE0FC0
780700
380600
3C0600
1E0C00
0E1800
0F1000
07B000
03A000
03C000
01C000
01C000
01C000
01C000
01C000
01C000
03C000
0FF800
ENDCHAR
STARTCHAR 00DE
ENCODING 222
SWIDTH 571 0
DWIDTH 16 0
BBX 15 18 1 0
BITMAP
FF00
3C00
1800
1FE0
1C38
1C1C
1C1C
1C0E
1C0E
1C0E
1C1C
1C1C
1C78
1FE0
1C00
3C00
3C00
FF00
ENDCHAR
STARTCHAR 00DF
ENCODING 223
SWIDTH 607 0
DWIDTH 17 0
BBX 15 20 1 0
BITMAP
01E0
0670
0838
1838
3838
3870
30E0
39C0
7B80
FB80
3B80
3BC0
39F0
38FC
383C
381E
380E
380E
399C
FDF0
ENDCHAR
STARTCHAR 00E0
ENCODING 224
SWIDTH 464 0
DWIDTH 13 0
BBX 13 18 1 0
BITMAP
3800
3800
0C00
0200
0000
0000
0F80
31C0
61C0
C1C0
01C0
03C0
3FC0
F1C0
E1C0
E1C0
FFF8
7DE0
ENDCHAR
STARTCHAR 00E1
ENCODING 225
SWIDTH 464 0
DWIDTH 13 0
BBX 13 18 1 0
BITMAP
01C0
0380
0600
0C00
0000
0000
0F80
31C0
61C0
C1C0
01C0
03C0
3FC0
F1C0
E1C0
E1C0
FFF8
7DE0
ENDCHAR
STARTCHAR 00E2
ENCODING 226
SWIDTH 464 0
DWIDTH 13 0
BBX 13 18 1 0
BITMAP
0400
0E00
1B00
3180
2000
0000
0F80
31C0
61C0
C1C0
01C0
03C0
3FC0
F1C0
E1C0
E1C0
FFF8
7DE0
ENDCHAR
STARTCHAR 00E3
ENCODING 227
SWIDTH 464 0
DWIDTH 13 0
BBX 13 18 1 0
BITMAP
1800
2640
4380
0000
0000
0000
0F80
31C0
61C0
C1C0
01C0
03C0
3FC0
F1C0
E1C0
E1C0
FFF8
7DE0
ENDCHAR
STARTCHAR 00E4
ENCODING 228
SWIDTH 464 0
DWIDTH 13 0
BBX 13 17 1 0
BITMAP
18C0
39C0
18C0
0000
0000
0F80
31C0
61C0
C1C0
01C0
03C0
3FC0
F1C0
E1C0
E1C0
FFF8
7DE0
ENDCHAR
STARTCHAR 00E5
ENCODING 229
SWIDTH 464 0
DWIDTH 13 0
BBX 13 18 1 0
BITMAP
0F00
1980
1980
1980
0F00
0000
0F80
31C0
61C0
C1C0
01C0
03C0
3FC0
F1C0
E1C0
E1C0
FFF8
7DE0
ENDCHAR
STARTCHAR 00E6
ENCODING 230
SWIDTH 678 0
DWIDTH 19 0
BBX 17 12 1 0
BITMAP
0F3E00
31E700
61C300
61C380
01C780
07F800
3FC000
F1C000
E1C000
E1E000
E1F180
7E7E00
ENDCHAR
STARTCHAR 00E7
ENCODING 231
SWIDTH 428 0
DWIDTH 12 0
BBX 11 18 1 -6
BITMAP
07C0
19E0
3040
6000
6000
E000
E000
E000
F000
7000
3840
1F80
0200
0600
0700
0300
0100
0E00
ENDCHAR
STARTCHAR 00E8
ENCODING 232
SWIDTH 428 0
DWIDTH 12 0
BBX 11 18 1 0
BITMAP
7000
3800
1C00
0400
0000
0000
0F00
31C0
60C0
60E0
E3E0
FF00
E000
E000
E000
7000
7840
1F80
ENDCHAR
STARTCHAR 00E9
ENCODING 233
SWIDTH 428 0
DWIDTH 12 0
BBX 11 18 1 0
BITMAP
0380
0300
0600
0800
0000
0000
0F00
31C0
60C0
60E0
E3E0
FF00
E000
E000
E000
7000
7840
1F80
ENDCHAR
STARTCHAR 00EA
ENCODING 234
SWIDTH 428 0
DWIDTH 12 0
BBX 11 18 1 0
BITMAP
0400
0E00
1B00
3180
2000
0000
0F00
31C0
60C0
60E0
E3E0
FF00
E000
E000
E000
7000
7840
1F80
ENDCHAR
STARTCHAR 00EB
ENCODING 235
SWIDTH 428 0
DWIDTH 12 0
BBX 11 17 1 0
BITMAP
3180
7380
3180
0000
0000
0F00
31C0
60C0
60E0
E3E0
FF00
E000
E000
E000
7000
7840
1F80
ENDCHAR
STARTCHAR 00EC
ENCODING 236
SWIDTH 285 0
DWIDTH 8 0
BBX 8 18 0 0
BITMAP
E0
70
38
08
00
00
0C
78
38
38
38
38
38
38
38
38
38
7F
ENDCHAR
STARTCHAR 00ED
ENCODING 237
SWIDTH 285 0
DWIDTH 8 0
BBX 7 18 1 0
BITMAP
0E
1C
18
20
00
00
18
F8
78
38
38
38
38
38
38
38
78
FE
ENDCHAR
STARTCHAR 00EE
ENCODING 238
SWIDTH 285 0
DWIDTH 8 0
BBX 7 18 0 0
BITMAP
10
38
2C
46
02
00
0C
7C
38
38
38
38
38
38
38
38
3C
FE
ENDCHAR
STARTCHAR 00EF
ENCODING 239
SWIDTH 285 0
DWIDTH 8 0
BBX 8 17 0 0
BITMAP
63
E7
63
00
00
0C
78
38
38
38
38
38
38
38
38
38
7F
ENDCHAR
STARTCHAR 00F0
ENCODING 240
SWIDTH 571 0
DWIDTH 16 0
BBX 13 20 1 0
BITMAP
1840
0C80
0700
0300
0580
19C0
00C0
0060
0FF0
38F0
7078
6078
E038
E038
E038
E038
7038
7030
3860
0F80
ENDCHAR
STARTCHAR 00F1
ENCODING 241
SWIDTH 607 0
DWIDTH 17 0
BBX 15 18 1 0
BITMAP
0600
0B10
10E0
1000
0000
0000
18F0
FF70
7838
3838
3838
3838
3838
3838
3838
3838
3878
FEFE
ENDCHAR
STARTCHAR 00F2
ENCODING 242
SWIDTH 571 0
DWIDTH 16 0
BBX 13 18 1 0
BITMAP
1C00
1C00
0600
0100
0000
0000
0FC0
38E0
7070
6078
E038
E038
E038
E038
7038
7030
3860
0F80
ENDCHAR
STARTCHAR 00F3
ENCODING 243
SWIDTH 571 0
DWIDTH 16 0
BBX 13 18 1 0
BITMAP
00E0
01C0
0300
0600
0000
0000
0FC0
38E0
7070
6078
E038
E038
E038
E038
7038
7030
3860
0F80
ENDCHAR
STARTCHAR 00F4
ENCODING 244
SWIDTH 571 0
DWIDTH 16 0
BBX 13 18 1 0
BITMAP
0300
0700
0580
08C0
1000
0000
0FC0
38E0
7070
6078
E038
E038
E038
E038
7038
7030
3860
0F80
ENDCHAR
STARTCHAR 00F5
ENCODING 245
SWIDTH 571 0
DWIDTH 16 0
BBX 13 18 1 0
BITMAP
0C00
1320
21C0
0000
0000
0000
0FC0
38E0
7070
6078
E038
E038
E038
E038
7038
7030
3860
0F80
ENDCHAR
STARTCHAR 00F6
ENCODING 246
SWIDTH 571 0
DWIDTH 16 0
BBX 13 17 1 0
BITMAP
0C60
1CE0
0C60
0000
0000
0FC0
38E0
7070
6078
E038
E038
E038
E038
7038
7030
3860
0F80
ENDCHAR
STARTCHAR 00F7
ENCODING 247
SWIDTH 571 0
DWIDTH 16 0
BBX 11 11 2 3
BITMAP
0E00
0E00
0E00
0000
0000
FFE0
0000
0000
0E00
0E00
0E00
ENDCHAR
STARTCHAR 00F8
ENCODING 248
SWIDTH 571 0
DWIDTH 16 0
BBX 13 14 1 -1
BITMAP
0008
0FD0
38F0
7070
60B8
E1B8
E138
E238
E438
7C38
7830
3860
7F80
4000
ENDCHAR
STARTCHAR 00F9
ENCODING 249
SWIDTH 607 0
DWIDTH 17 0
BBX 15 18 2 0
BITMAP
3800
1C00
0600
0300
0000
0000
61F0
F070
7070
7070
7070
7070
7070
7070
7070
7070
78FE
3F38
ENDCHAR
STARTCHAR 00FA
ENCODING 250
SWIDTH 607 0
DWIDTH 17 0
BBX 15 18 2 0
BITMAP
01C0
01C0
0300
0400
0000
0000
61F0
F070
7070
7070
7070
7070
7070
7070
7070
7070
78FE
3F38
ENDCHAR
STARTCHAR 00FB
ENCODING 251
SWIDTH 607 0
DWIDTH 17 0
BBX 15 18 2 0
BITMAP
0600
0700
0D00
1880
0000
0000
61F0
F070
7070
7070
7070
7070
7070
7070
7070
7070
78FE
3F38
ENDCHAR
STARTCHAR 00FC
ENCODING 252
SWIDTH 607 0
DWIDTH 17 0
BBX 15 17 2 0
BITMAP
1980
1DC0
1980
0000
0000
61F0
F070
7070
7070
7070
7070
7070
7070
7070
7070
78FE
3F38
ENDCHAR
STARTCHAR 00FD
ENCODING 253
SWIDTH 428 0
DWIDTH 12 0
BBX 13 26 0 -8
BITMAP
01C0
0180
0300
0400
0000
0000
FCF8
7030
7020
3860
3840
1840
1C80
1C80
0D00
0F00
0E00
0600
0400
0400
0800
0800
1000
3000
6000
E000
ENDCHAR
STARTCHAR 00FE
ENCODING 254
SWIDTH 571 0
DWIDTH 16 0
BBX 14 28 1 -8
BITMAP
3800
F800
7800
3800
3800
3800
3800
3800
3BE0
3C70
3838
3838
383C
381C
381C
3818
3838
3830
3C60
3FC0
3800
3800
3800
3800
3800
3800
7800
FE00
ENDCHAR
STARTCHAR 00FF
ENCODING 255
SWIDTH 428 0
DWIDTH 12 0
BBX 13 25 0 -8
BITMAP
18C0
1CE0
18C0
0000
0000
FCF8
7030
7020
3860
3840
1840
1C80
1C80
0D00
0F00
0E00
0600
0400
0400
0800
0800
1000
3000
6000
E000
ENDCHAR
STARTCHAR 0131
ENCODING 305
SWIDTH 285 0
DWIDTH 8 0
BBX 7 12 1 0
BITMAP
18
F8
78
38
38
38
38
38
38
38
78
FE
ENDCHAR
STARTCHAR 0141
ENCODING 321
SWIDTH 571 0
DWIDTH 16 0
BBX 15 18 1 0
BITMAP
7F80
3C00
3C00
3C00
3C20
3CC0
1D00
1E00
1C00
3C00
7C00
9C00
1C00
1C02
1C04
3C04
3C0C
FFFC
ENDCHAR
STARTCHAR 0142
ENCODING 322
SWIDTH 285 0
DWIDTH 8 0
BBX 8 20 0 0
BITMAP
1C
7C
3C
3C
3C
38
38
38
3E
3C
38
78
B8
38
38
38
3C
3C
3C
7F
ENDCHAR
STARTCHAR 0152
ENCODING 338
SWIDTH 1035 0
DWIDTH 29 0
BBX 27 18 1 0
BITMAP
01FFFFE0
0607C060
1C03C040
3803C040
3001C000
7001C000
7001C080
E001C080
E001FF80
E001C380
F003C080
7003C080
7003C000
7803C020
3803C020
1C03C060
0F03C0E0
01FFFFC0
ENDCHAR
STARTCHAR 0153
ENCODING 339
SWIDTH 821 0
DWIDTH 23 0
BBX 21 12 1 0
BITMAP
0FC3C0
38EC70
707C70
603838
E038F8
E03FC0
E01800
E03800
703C00
703C08
3C6E10
0F87E0
ENDCHAR
STARTCHAR 0160
ENCODING 352
SWIDTH 571 0
DWIDTH 16 0
BBX 13 25 1 0
BITMAP
3020
1860
0DC0
0780
0300
0000
0000
0FF0
1870
3030
7010
7010
7800
7C00
3F00
1FC0
07F0
01F0
0078
8038
C038
C038
E030
F070
7FC0
ENDCHAR
STARTCHAR 0161
ENCODING 353
SWIDTH 392 0
DWIDTH 11 0
BBX 9 19 1 0
BITMAP
4100
2300
1600
1C00
0C00
0000
0000
3F00
7300
E100
F000
F800
7E00
1F00
0780
8380
C380
C380
FE00
ENDCHAR
STARTCHAR 0178
ENCODING 376
SWIDTH 607 0
DWIDTH 17 0
BBX 18 23 0 0
BITMAP
0C3000
0E3800
0C3000
000000
000000
FE0FC0
780700
380600
3C0600
1E0C00
0E1800
0F1000
07B000
03A000
03C000
01C000
01C000
01C000
01C000
01C000
01C000
03C000
0FF800
ENDCHAR
STARTCHAR 017D
ENCODING 381
SWIDTH 642 0
DWIDTH 18 0
BBX 16 25 1 0
BITMAP
0808
0630
0360
01C0
01C0
0000
0000
3FFF
7FFE
601C
403C
4078
0070
00E0
01E0
03C0
0380
0700
0F00
0E00
1C01
3C03
7803
F01E
FFFE
ENDCHAR
STARTCHAR 017E
ENCODING 382
SWIDTH 428 0
DWIDTH 12 0
BBX 12 19 0 0
BITMAP
1040
08C0
0780
0700
0300
0000
0000
3FF0
38E0
61C0
41C0
0380
0700
0E00
0E00
1C10
3830
7860
FFE0
ENDCHAR
STARTCHAR 0192
ENCODING 402
SWIDTH 535 0
DWIDTH 15 0
BBX 15 23 0 -5
BITMAP
003C
0046
00C6
0180
0180
0380
0380
0300
07E0
0F00
0700
0700
0700
0F00
0E00
0E00
0E00
0E00
0C00
0C00
1800
9800
E000
ENDCHAR
STARTCHAR 02C6
ENCODING 710
SWIDTH 500 0
DWIDTH 14 0
BBX 8 5 3 13
BITMAP
18
18
3C
66
C3
ENDCHAR
STARTCHAR 02C7
ENCODING 711
SWIDTH 500 0
DWIDTH 14 0
BBX 8 5 3 14
BITMAP
83
66
3C
18
18
ENDCHAR
STARTCHAR 02C9
ENCODING 713
SWIDTH 500 0
DWIDTH 14 0
BBX 8 1 3 15
BITMAP
FF
ENDCHAR
STARTCHAR 02D8
ENCODING 728
SWIDTH 500 0
DWIDTH 14 0
BBX 7 4 3 14
BITMAP
82
42
46
3C
ENDCHAR
STARTCHAR 02D9
ENCODING 729
SWIDTH 500 0
DWIDTH 14 0
BBX 3 3 5 14
BITMAP
60
E0
60
ENDCHAR
STARTCHAR 02DA
ENCODING 730
SWIDTH 500 0
DWIDTH 14 0
BBX 6 5 4 13
BITMAP
78
CC
CC
CC
78
ENDCHAR
STARTCHAR 02DB
ENCODING 731
SWIDTH 500 0
DWIDTH 14 0
BBX 4 5 6 -5
BITMAP
20
40
C0
C0
70
ENDCHAR
STARTCHAR 02DC
ENCODING 732
SWIDTH 500 0
DWIDTH 14 0
BBX 8 4 3 14
BITMAP
60
91
89
06
ENDCHAR
STARTCHAR 02DD
ENCODING 733
SWIDTH 500 0
DWIDTH 14 0
BBX 9 4 4 14
BITMAP
3B80
3700
6400
C800
ENDCHAR
STARTCHAR 0394
ENCODING 916
SWIDTH 607 0
DWIDTH 17 0
BBX 15 19 1 0
BITMAP
0100
0180
0380
0380
07C0
05C0
05E0
08E0
08E0
1870
1070
1078
2038
2038
601C
401C
401E
800E
FFFE
ENDCHAR
STARTCHAR 03A9
ENCODING 937
SWIDTH 785 0
DWIDTH 22 0
BBX 19 19 1 0
BITMAP
03FC00
0E0700
3C0380
3801C0
7000E0
7000E0
E000E0
E000E0
E000E0
7000E0
7000E0
3001C0
180180
0C0200
431C20
611020
7F1FE0
7F1FE0
7F1FC0
ENDCHAR
STARTCHAR 03BC
ENCODING 956
SWIDTH 607 0
DWIDTH 17 0
BBX 14 20 2 -8
BITMAP
61F0
F070
7070
7070
7070
7070
7070
7070
7070
7070
78FC
7F70
C000
C000
C000
E000
E000
E000
E000
C000
ENDCHAR
STARTCHAR 03C0
ENCODING 960
SWIDTH 535 0
DWIDTH 15 0
BBX 15 13 0 0
BITMAP
3FFC
4870
4870
0860
0860
0860
08E0
08E0
08E0
0862
9874
7074
7038
ENDCHAR
STARTCHAR 2010
ENCODING 8208
SWIDTH 285 0
DWIDTH 8 0
BBX 6 2 1 5
BITMAP
FC
FC
ENDCHAR
STARTCHAR 2013
ENCODING 8211
SWIDTH 464 0
DWIDTH 13 0
BBX 11 1 1 6
BITMAP
FFE0
ENDCHAR
STARTCHAR 2014
ENCODING 8212
SWIDTH 750 0
DWIDTH 21 0
BBX 19 1 1 6
BITMAP
FFFFE0
ENDCHAR
STARTCHAR 2018
ENCODING 8216
SWIDTH 250 0
DWIDTH 7 0
BBX 5 8 1 11
BITMAP
18
60
40
C0
C0
E0
E0
60
ENDCHAR
STARTCHAR 2019
ENCODING 8217
SWIDTH 250 0
DWIDTH 7 0
BBX 5 8 1 11
BITMAP
30
30
30
38
10
30
60
C0
ENDCHAR
STARTCHAR 201A
ENCODING 8218
SWIDTH 250 0
DWIDTH 7 0
BBX 5 8 1 -5
BITMAP
30
30
30
38
10
30
60
C0
ENDCHAR
STARTCHAR 201C
ENCODING 8220
SWIDTH 428 0
DWIDTH 12 0
BBX 11 8 1 11
BITMAP
1860
6180
4100
C300
C300
E380
E380
6180
ENDCHAR
STARTCHAR 201D
ENCODING 8221
SWIDTH 428 0
DWIDTH 12 0
BBX 11 8 1 11
BITMAP
30C0
30C0
30C0
38E0
10C0
30C0
6180
C600
ENDCHAR
STARTCHAR 201E
ENCODING 8222
SWIDTH 428 0
DWIDTH 12 0
BBX 11 8 1 -5
BITMAP
30C0
30C0
30C0
38E0
1040
30C0
6180
C600
ENDCHAR
STARTCHAR 2020
ENCODING 8224
SWIDTH 535 0
DWIDTH 15 0
BBX 11 25 2 -7
BITMAP
0400
0E00
0E00
0C00
0400
0400
4440
F7E0
7FC0
0400
0400
0C00
0E00
0E00
0E00
0C00
0400
0400
0400
0400
0400
0400
0400
0400
0400
ENDCHAR
STARTCHAR 2021
ENCODING 8225
SWIDTH 535 0
DWIDTH 15 0
BBX 11 25 2 -7
BITMAP
0C00
0E00
0C00
0C00
0400
0400
C440
FFE0
E4C0
0400
0400
0C00
0E00
0C00
0C00
0400
C4C0
FFE0
C440
0400
0400
0C00
0C00
0E00
0C00
ENDCHAR
STARTCHAR 2022
ENCODING 8226
SWIDTH 642 0
DWIDTH 18 0
BBX 7 8 5 5
BITMAP
38
7C
FE
FE
FE
FE
7C
38
ENDCHAR
STARTCHAR 2026
ENCODING 8230
SWIDTH 714 0
DWIDTH 20 0
BBX 17 3 2 0
BITMAP
C18300
E1C380
C18300
ENDCHAR
STARTCHAR 2030
ENCODING 8240
SWIDTH 1035 0
DWIDTH 29 0
BBX 27 18 1 0
BITMAP
3E040000
67080000
E7080000
E3900000
E3900000
E3A00000
E3200000
77400000
3CC00000
008F0F80
011B99C0
0139B9C0
0239F8E0
0239F8E0
0439F8E0
0C39B8C0
081B9DC0
100E0F00
ENDCHAR
STARTCHAR 2039
ENCODING 8249
SWIDTH 285 0
DWIDTH 8 0
BBX 6 10 1 1
BITMAP
04
0C
18
70
E0
E0
30
18
0C
04
ENDCHAR
STARTCHAR 203A
ENCODING 8250
SWIDTH 285 0
DWIDTH 8 0
BBX 6 10 1 1
BITMAP
80
40
60
30
1C
18
30
60
C0
80
ENDCHAR
STARTCHAR 2044
ENCODING 8260
SWIDTH 107 0
DWIDTH 3 0
BBX 11 18 -4 0
BITMAP
0060
00C0
0080
0180
0100
0300
0200
0400
0400
0800
0800
1000
1000
2000
6000
4000
C000
8000
ENDCHAR
STARTCHAR 2122
ENCODING 8482
SWIDTH 821 0
DWIDTH 23 0
BBX 21 9 1 9
BITMAP
FF7038
993870
183870
183CF0
182D70
182D70
182760
182660
3C72F8
ENDCHAR
STARTCHAR 2126
ENCODING 8486
SWIDTH 785 0
DWIDTH 22 0
BBX 19 19 1 0
BITMAP
03FC00
0E0700
3C0380
3801C0
7000E0
7000E0
E000E0
E000E0
E000E0
7000E0
7000E0
3001C0
180180
0C0200
431C20
611020
7F1FE0
7F1FE0
7F1FC0
ENDCHAR
STARTCHAR 2202
ENCODING 8706
SWIDTH 500 0
DWIDTH 14 0
BBX 10 18 2 0
BITMAP
0E00
1900
1980
0080
0080
00C0
00C0
3CC0
72C0
61C0
E180
E180
E180
E180
E300
E300
6600
3C00
ENDCHAR
STARTCHAR 2206
ENCODING 8710
SWIDTH 607 0
DWIDTH 17 0
BBX 15 19 1 0
BITMAP
0100
0180
0380
0380
07C0
05C0
05E0
08E0
08E0
1870
1070
1078
2038
2038
601C
401C
401E
800E
FFFE
ENDCHAR
STARTCHAR 220F
ENCODING 8719
SWIDTH 821 0
DWIDTH 23 0
BBX 21 27 1 -6
BITMAP
FFFFF8
3800E0
3800E0
3800E0
3800E0
3800E0
3800E0
3800E0
3800E0
3800E0
3800E0
3800E0
3800E0
3800E0
3800E0
3800E0
3800E0
3800E0
3800E0
3800E0
3800E0
3800E0
3800E0
3800E0
3800E0
3800E0
FE03F8
ENDCHAR
STARTCHAR 2211
ENCODING 8721
SWIDTH 714 0
DWIDTH 20 0
BBX 18 27 1 -6
BITMAP
FFFF00
780F00
380700
1C0300
1E0100
0F0180
070080
078000
03C000
01E000
00E000
00F000
007800
003800
001800
003000
002000
004000
008000
010000
0200C0
060080
0C0080
180180
100780
3FFF00
7FFF00
ENDCHAR
STARTCHAR 2212
ENCODING 8722
SWIDTH 535 0
DWIDTH 15 0
BBX 12 2 1 8
BITMAP
FFF0
FFF0
ENDCHAR
STARTCHAR 2219
ENCODING 8729
SWIDTH 250 0
DWIDTH 7 0
BBX 2 4 2 4
BITMAP
C0
C0
C0
C0
ENDCHAR
STARTCHAR 221A
ENCODING 8730
SWIDTH 535 0
DWIDTH 15 0
BBX 17 23 0 0
BITMAP
000780
000600
000E00
000C00
000C00
001800
001800
003800
003000
003000
707000
B86000
386000
3CC000
1CC000
1CC000
0F8000
0F8000
0F8000
070000
070000
070000
020000
ENDCHAR
STARTCHAR 221E
ENCODING 8734
SWIDTH 714 0
DWIDTH 20 0
BBX 17 11 1 3
BITMAP
1C1E00
223100
416080
40E080
40C080
80C080
40C080
41C080
414080
232100
1E1E00
ENDCHAR
STARTCHAR 222B
ENCODING 8747
SWIDTH 285 0
DWIDTH 8 0
BBX 12 26 -2 -5
BITMAP
00F0
0130
0330
0300
0300
0700
0700
0700
0700
0700
0700
0600
0600
0600
0600
0600
0600
0600
0600
0600
0600
0600
0C00
CC00
E800
F000
ENDCHAR
STARTCHAR 2248
ENCODING 8776
SWIDTH 535 0
DWIDTH 15 0
BBX 15 7 0 3
BITMAP
1E02
6186
C078
8002
3E02
E18E
8078
ENDCHAR
STARTCHAR 2260
ENCODING 8800
SWIDTH 535 0
DWIDTH 15 0
BBX 13 12 1 1
BITMAP
0010
0038
0070
0060
FFF8
0380
0700
0600
FFF8
3800
7000
4000
ENDCHAR
STARTCHAR 2264
ENCODING 8804
SWIDTH 535 0
DWIDTH 15 0
BBX 13 13 1 0
BITMAP
0018
00F8
07F0
7F00
F800
7E00
0FC0
01F8
0038
0000
0000
0000
FFF8
ENDCHAR
STARTCHAR 2265
ENCODING 8805
SWIDTH 535 0
DWIDTH 15 0
BBX 13 13 1 0
BITMAP
C000
F800
3F80
07F0
0078
03F8
1FC0
FE00
E000
0000
0000
0000
FFF8
ENDCHAR
STARTCHAR 22F2
ENCODING 8946
SWIDTH 535 0
DWIDTH 15 0
BBX 15 7 0 3
BITMAP
1E02
6186
C078
8002
3E02
E18E
8078
ENDCHAR
STARTCHAR 25CA
ENCODING 9674
SWIDTH 500 0
DWIDTH 14 0
BBX 14 28 0 -6
BITMAP
0300
0300
0780
0780
0F80
0CC0
1CC0
1860
1860
3030
3030
6038
6018
C01C
E018
6018
6038
3030
3070
1860
1860
0CC0
0CC0
0F80
0780
0780
0300
0300
ENDCHAR
STARTCHAR F000
ENCODING 61440
SWIDTH 785 0
DWIDTH 22 0
BBX 18 23 2 0
BITMAP
000C00
001C00
003C00
003800
007000
006000
3FBF00
7FFFC0
7FFF80
FFFF00
FFFF00
FFFE00
FFFE00
FFFE00
FFFF00
FFFF00
FFFFC0
7FFFC0
7FFFC0
3FFF80
3FFF80
1FFF00
0F1E00
ENDCHAR
STARTCHAR F001
ENCODING 61441
SWIDTH 607 0
DWIDTH 17 0
BBX 15 20 1 0
BITMAP
03E0
0470
1838
1830
3800
3000
3000
3000
7FF8
FFF8
3038
3838
3838
3838
3838
3838
3838
3838
3878
FEFE
ENDCHAR
STARTCHAR F002
ENCODING 61442
SWIDTH 607 0
DWIDTH 17 0
BBX 15 20 1 0
BITMAP
03C8
0C78
1838
3838
3838
3038
3038
3038
FF38
3038
3038
3838
3838
3838
3838
3838
3838
3838
7878
FEFE
ENDCHAR
ENDFONT
